{"title":"Five Days 2007 Miniserie 2DVDrip English Klam","uid":11150406,"size":3095785832,"categoryP":"video","categoryS":"movies","magnet":"?xt=urn:btih:674e87cf84957e8696643ebe9144b17e227723e3&amp;dn=Five+Days+2007+Miniserie+2DVDrip+English+Klam&amp;tr=udp%3A%2F%2Ftracker.openbittorrent.com%3A80&amp;tr=udp%3A%2F%2Fopen.demonii.com%3A1337&amp;tr=udp%3A%2F%2Ftracker.coppersurfer.tk%3A6969&amp;tr=udp%3A%2F%2Fexodus.desync.com%3A6969","seeders":7,"leechers":4,"uploader":"Klambake","files":-1,"time":1412337052,"description":"With: Hugh Bonneville, David Oyelowo and Sarah Smart\n\nHet verhaal begint op een hete zomerdag wanneer Leanne Wellings haar twee jonge kinderen meeneemt om haar grootvader te bezoeken. Ze stopt op een uitwijkplaats op de autosnelweg om bloemen te kopen, maar dan verdwijnt ze onverklaarbaar. Haar twee kinderen blijven verlaten achter in de auto. Ze gaan op zoek naar hun moeder, maar ze geraken ook vermist. De verdwijning van Leanne is niet alleen een complex politieonderzoek, maar ook een belangrijk nationaal nieuwsverhaal.\n\nA five-part miniseries that revolves around the disappearance of a young mother in a quiet British suburb and the circumstances that leave her children abandoned far from home.\n &lt;a href=&quot;\nhttp://www.imdb.com/title/tt0840094&quot; rel=&quot;nofollow&quot; target=&quot;_NEW&quot;&gt;\nhttp://www.imdb.com/title/tt0840094&lt;/a&gt;\t\n\n--------------------- Dutch Friends 4ever ---------------------\n---------------------------------------------------------------\n- Bezoek ook eens mijn vrienden op: &lt;a href=&quot; http://www.Film-Test.nl&quot; rel=&quot;nofollow&quot; target=&quot;_NEW&quot;&gt; http://www.Film-Test.nl&lt;/a&gt; --\n----- voor mijn Nederlandse Sync. ondertitels ---- en meer ----\n------- http://www.Film-Test.nl ---- Over Films en meer -------\n---------------------------------------------------------------\n &lt;a href=&quot;\nhttp://i.imgur.com/IbUyqyG.jpg&quot; rel=&quot;nofollow&quot; target=&quot;_NEW&quot;&gt;\nhttp://i.imgur.com/IbUyqyG.jpg&lt;/a&gt; &lt;a href=&quot;\nhttp://i.imgur.com/uZlQgu5.jpg&quot; rel=&quot;nofollow&quot; target=&quot;_NEW&quot;&gt;\nhttp://i.imgur.com/uZlQgu5.jpg&lt;/a&gt; &lt;a href=&quot;\nhttp://i.imgur.com/2jWf5mn.jpg&quot; rel=&quot;nofollow&quot; target=&quot;_NEW&quot;&gt;\nhttp://i.imgur.com/2jWf5mn.jpg&lt;/a&gt;\n\nGeneral:\n\nComplete name                            : Five Days/01 Day One.avi\nFormat                                   : AVI\nFormat/Info                              : Audio Video Interleave\nFile size                                : 585 MiB\nDuration                                 : 56mn 27s\nOverall bit rate                         : 1 448 Kbps\n\nVideo:\n\nFormat                                   : MPEG-4 Visual\nFormat profile                           : Simple@L3\nFormat settings, BVOP                    : No\nFormat settings, QPel                    : No\nFormat settings, GMC                     : No warppoints\nFormat settings, Matrix                  : Default (H.263)\nCodec ID                                 : XVID\nCodec ID/Hint                            : XviD\nDuration                                 : 56mn 27s\nBit rate                                 : 1 053 Kbps\nWidth                                    : 652 pixels\nHeight                                   : 352 pixels\nDisplay aspect ratio                     : 1.85:1\nFrame rate                               : 25.000 fps\nColor space                              : YUV\nChroma subsampling                       : 4:2:0\nBit depth                                : 8 bits\nScan type                                : Progressive\nCompression mode                         : Lossy\nBits/(Pixel*Frame)                       : 0.184\nStream size                              : 425 MiB (73%)\nWriting library                          : XviD 1.1.2 (UTC 2006-11-01)\n\nAudio:\n\nFormat                                   : AC-3\nFormat/Info                              : Audio Coding 3\nMode extension                           : CM (complete main)\nFormat settings, Endianness              : Big\nCodec ID                                 : 2000\nDuration                                 : 56mn 25s\nSource duration                          : 56mn 25s\nBit rate mode                            : Constant\nBit rate                                 : 384 Kbps\nChannel(s)                               : 6 channels\nChannel positions                        : Front: L C R, Side: L R, LFE\nSampling rate                            : 48.0 KHz\nBit depth                                : 16 bits\nCompression mode                         : Lossy\nStream size                              : 155 MiB (27%)\nAlignment                                : Aligned on interleaves\nInterleave, duration                     : 32 ms (0.80 video frame)\n\n\n","torrent":{"xt":"urn:btih:674e87cf84957e8696643ebe9144b17e227723e3","amp;dn":"Five+Days+2007+Miniserie+2DVDrip+English+Klam","amp;tr":["udp%3A%2F%2Ftracker.openbittorrent.com%3A80","udp%3A%2F%2Fopen.demonii.com%3A1337","udp%3A%2F%2Ftracker.coppersurfer.tk%3A6969","udp%3A%2F%2Fexodus.desync.com%3A6969"],"infoHash":"674e87cf84957e8696643ebe9144b17e227723e3","infoHashBuffer":{"type":"Buffer","data":[103,78,135,207,132,149,126,134,150,100,62,190,145,68,177,126,34,119,35,227]},"announce":[],"urlList":[]}}